<svg
        xmlns="http://www.w3.org/2000/svg"
        xmlns:xlink="http://www.w3.org/1999/xlink"
        width="14px" height="14px">
    <path fill-rule="evenodd"  fill="rgb(196, 196, 196)"
          d="M9.828,7.000 L12.657,9.828 C13.438,10.609 13.438,11.876 12.657,12.657 C11.876,13.438 10.609,13.438 9.828,12.657 L7.000,9.828 L4.172,12.657 C3.391,13.438 2.124,13.438 1.343,12.657 C0.562,11.876 0.562,10.609 1.343,9.828 L4.172,7.000 L1.343,4.172 C0.562,3.391 0.562,2.124 1.343,1.343 C2.124,0.562 3.391,0.562 4.172,1.343 L7.000,4.172 L9.828,1.343 C10.609,0.562 11.876,0.562 12.657,1.343 C13.438,2.124 13.438,3.391 12.657,4.172 L9.828,7.000 Z"/>
</svg>